<svg width="20" height="20" viewBox="0 0 20 20" fill="none" xmlns="http://www.w3.org/2000/svg">
<g clip-path="url(#clip0_96_30657)">
<path d="M12.2028 10L19.6805 2.52194C19.8862 2.31609 19.9997 2.04146 20 1.74861C20 1.4556 19.8865 1.18064 19.6805 0.975113L19.0252 0.319991C18.8192 0.113649 18.5446 0.000640869 18.2514 0.000640869C17.9587 0.000640869 17.6841 0.113649 17.478 0.319991L10.0003 7.79756L2.52228 0.319991C2.31659 0.113649 2.04179 0.000640869 1.74878 0.000640869C1.4561 0.000640869 1.1813 0.113649 0.97561 0.319991L0.32 0.975113C-0.106667 1.40178 -0.106667 2.09576 0.32 2.52194L7.79789 10L0.32 17.4777C0.114146 17.6839 0.000813008 17.9585 0.000813008 18.2514C0.000813008 18.5442 0.114146 18.8189 0.32 19.0249L0.975447 19.68C1.18114 19.8862 1.4561 19.9994 1.74862 19.9994C2.04163 19.9994 2.31642 19.8862 2.52211 19.68L10.0002 12.2023L17.4779 19.68C17.6839 19.8862 17.9585 19.9994 18.2512 19.9994H18.2515C18.5444 19.9994 18.819 19.8862 19.025 19.68L19.6803 19.0249C19.886 18.819 19.9995 18.5442 19.9995 18.2514C19.9995 17.9585 19.886 17.6839 19.6803 17.4779L12.2028 10Z" fill="white"/>
</g>
<defs>
<clipPath id="clip0_96_30657">
<rect width="20" height="20" fill="white"/>
</clipPath>
</defs>
</svg>
