<svg width="50" height="44" viewBox="0 0 50 44" fill="none" xmlns="http://www.w3.org/2000/svg">
<path d="M24.3422 37.4357C24.5001 37.6122 24.7427 37.7154 24.9997 37.7154C25.2567 37.7154 25.4993 37.6122 25.6572 37.4357L43.1572 17.8524C43.3525 17.6338 43.3877 17.3375 43.248 17.0887C43.2325 17.0652 43.2153 17.0427 43.1963 17.0212H43.203L37.3697 9.04281C37.2128 8.83961 36.9476 8.72011 36.6664 8.72585V8.70337H13.3331V8.72585C13.0526 8.71931 12.7876 8.83736 12.6297 9.03919L6.79641 17.0176H6.80307C6.78414 17.039 6.76688 17.0616 6.75141 17.085C6.61168 17.3338 6.64693 17.6302 6.84224 17.8488L24.3422 37.4357ZM26.518 10.154H35.148L30.833 16.0558L26.518 10.154ZM29.3147 16.6818H20.6847L24.9997 10.7799L29.3147 16.6818ZM19.1664 16.0558L14.8514 10.154H23.4814L19.1664 16.0558ZM9.2039 18.1324H18.5272L23.4639 34.0892L9.2039 18.1324ZM26.5672 34.0551L29.2497 25.6031C29.3591 25.2214 29.0989 24.8333 28.6633 24.7285C28.2277 24.6236 27.7754 24.8401 27.6439 25.2165L25.0114 33.5089L20.2539 18.1324H29.7539L28.7255 21.5769C28.638 21.8314 28.7174 22.1072 28.9324 22.2958C29.1475 22.4844 29.4638 22.5556 29.7569 22.4813C30.05 22.407 30.2729 22.1991 30.338 21.9395L31.4772 18.1324H40.7955L26.5672 34.0551ZM40.9813 16.6818H32.3514L36.6664 10.7799L40.9813 16.6818ZM13.3331 10.7799L17.6481 16.6818H9.01807L13.3331 10.7799Z" fill="url(#paint0_linear_96_15726)"/>
<path d="M0.833332 22.4848H3.33333C3.79356 22.4848 4.16666 22.1601 4.16666 21.7595C4.16666 21.3589 3.79356 21.0342 3.33333 21.0342H0.833332C0.373095 21.0342 0 21.3589 0 21.7595C0 22.1601 0.373095 22.4848 0.833332 22.4848Z" fill="url(#paint1_linear_96_15726)"/>
<path d="M46.6666 22.4848H49.1666C49.6268 22.4848 49.9999 22.1601 49.9999 21.7595C49.9999 21.3589 49.6268 21.0342 49.1666 21.0342H46.6666C46.2063 21.0342 45.8333 21.3589 45.8333 21.7595C45.8333 22.1601 46.2063 22.4848 46.6666 22.4848Z" fill="url(#paint2_linear_96_15726)"/>
<path d="M25.8336 42.7931V40.6172C25.8336 40.2166 25.4606 39.8918 25.0003 39.8918C24.5401 39.8918 24.167 40.2166 24.167 40.6172V42.7931C24.167 43.1937 24.5401 43.5184 25.0003 43.5184C25.4606 43.5184 25.8336 43.1937 25.8336 42.7931Z" fill="url(#paint3_linear_96_15726)"/>
<path d="M25.0003 3.62654C25.4606 3.62654 25.8336 3.30181 25.8336 2.90123V0.725308C25.8336 0.324732 25.4606 0 25.0003 0C24.5401 0 24.167 0.324732 24.167 0.725308V2.90123C24.167 3.30181 24.5401 3.62654 25.0003 3.62654Z" fill="url(#paint4_linear_96_15726)"/>
<path d="M9.08998 34.5813L7.32248 36.1204C7.09736 36.3007 7.00388 36.5739 7.07898 36.8321C7.15408 37.0902 7.38568 37.2918 7.68228 37.3572C7.97888 37.4225 8.29278 37.3412 8.49998 37.1453L10.2675 35.6069C10.5833 35.3223 10.5788 34.8699 10.2573 34.5901C9.93588 34.3103 9.41613 34.3064 9.08914 34.5813H9.08998Z" fill="url(#paint5_linear_96_15726)"/>
<path d="M40.3209 9.14978C40.5419 9.14974 40.7538 9.0733 40.91 8.93727L42.6775 7.39816C42.9027 7.21782 42.9961 6.94461 42.921 6.68646C42.8459 6.42831 42.6143 6.22673 42.3177 6.16137C42.0211 6.096 41.7072 6.17736 41.5 6.3733L39.7325 7.91168C39.4943 8.11911 39.423 8.43103 39.552 8.70202C39.6809 8.97301 39.9847 9.14972 40.3217 9.14978H40.3209Z" fill="url(#paint6_linear_96_15726)"/>
<path d="M42.0881 37.3578C42.4251 37.3577 42.7289 37.181 42.8579 36.91C42.9868 36.639 42.9156 36.3271 42.6773 36.1197L40.9098 34.5813C40.5828 34.3064 40.0631 34.3103 39.7416 34.5901C39.4202 34.8699 39.4157 35.3223 39.7315 35.6069L41.4998 37.1453C41.6559 37.2811 41.8674 37.3575 42.0881 37.3578Z" fill="url(#paint7_linear_96_15726)"/>
<path d="M9.08998 8.93727C9.41696 9.21214 9.93671 9.20821 10.2582 8.92843C10.5796 8.64865 10.5841 8.19628 10.2683 7.91168L8.49998 6.3733C8.29278 6.17736 7.97888 6.096 7.68228 6.16137C7.38568 6.22673 7.15408 6.42831 7.07898 6.68646C7.00388 6.94461 7.09736 7.21782 7.32248 7.39816L9.08998 8.93727Z" fill="url(#paint8_linear_96_15726)"/>
<defs>
<linearGradient id="paint0_linear_96_15726" x1="45.7301" y1="40.7282" x2="-14.3597" y2="29.6169" gradientUnits="userSpaceOnUse">
<stop stop-color="#0B3F37"/>
<stop offset="0.969562" stop-color="#CB8D62"/>
</linearGradient>
<linearGradient id="paint1_linear_96_15726" x1="4.4391" y1="22.6354" x2="-1.56284" y2="20.113" gradientUnits="userSpaceOnUse">
<stop stop-color="#0B3F37"/>
<stop offset="0.969562" stop-color="#CB8D62"/>
</linearGradient>
<linearGradient id="paint2_linear_96_15726" x1="50.2724" y1="22.6354" x2="44.2704" y2="20.113" gradientUnits="userSpaceOnUse">
<stop stop-color="#0B3F37"/>
<stop offset="0.969562" stop-color="#CB8D62"/>
</linearGradient>
<linearGradient id="paint3_linear_96_15726" x1="25.9426" y1="43.895" x2="23.1306" y2="43.7059" gradientUnits="userSpaceOnUse">
<stop stop-color="#0B3F37"/>
<stop offset="0.969562" stop-color="#CB8D62"/>
</linearGradient>
<linearGradient id="paint4_linear_96_15726" x1="25.9426" y1="4.00314" x2="23.1306" y2="3.81406" gradientUnits="userSpaceOnUse">
<stop stop-color="#0B3F37"/>
<stop offset="0.969562" stop-color="#CB8D62"/>
</linearGradient>
<linearGradient id="paint5_linear_96_15726" x1="10.7268" y1="37.6911" x2="5.04353" y2="36.736" gradientUnits="userSpaceOnUse">
<stop stop-color="#0B3F37"/>
<stop offset="0.969562" stop-color="#CB8D62"/>
</linearGradient>
<linearGradient id="paint6_linear_96_15726" x1="43.1726" y1="9.46242" x2="37.4727" y2="8.50452" gradientUnits="userSpaceOnUse">
<stop stop-color="#0B3F37"/>
<stop offset="0.969562" stop-color="#CB8D62"/>
</linearGradient>
<linearGradient id="paint7_linear_96_15726" x1="43.1452" y1="37.6672" x2="37.5018" y2="36.7186" gradientUnits="userSpaceOnUse">
<stop stop-color="#0B3F37"/>
<stop offset="0.969562" stop-color="#CB8D62"/>
</linearGradient>
<linearGradient id="paint8_linear_96_15726" x1="10.7277" y1="9.45258" x2="5.04312" y2="8.49698" gradientUnits="userSpaceOnUse">
<stop stop-color="#0B3F37"/>
<stop offset="0.969562" stop-color="#CB8D62"/>
</linearGradient>
</defs>
</svg>
