<svg width="50" height="51" viewBox="0 0 50 51" fill="none" xmlns="http://www.w3.org/2000/svg">
<path d="M48.5776 0.244172L45 3.82175V0.833352C45 0.496348 44.7969 0.192559 44.4856 0.0636031C44.1742 -0.0653531 43.8158 0.00591021 43.5775 0.244172L38.5774 5.24429C38.4211 5.40053 38.3333 5.61247 38.3332 5.83347V10.4886L36.3765 12.4453C33.0093 9.3169 28.7318 7.34454 24.1662 6.81516V5.00011C25.547 5.00011 26.6663 3.8808 26.6663 2.50006C26.6663 1.11931 25.547 0 24.1662 0H19.1661C17.7854 0 16.6661 1.11931 16.6661 2.50006C16.6661 3.8808 17.7854 5.00011 19.1661 5.00011V6.81516C15.1792 7.27652 11.4002 8.84136 8.25421 11.3336L6.82167 9.90023C5.81641 8.9543 4.24853 8.9543 3.24326 9.90023C2.76688 10.3756 2.49918 11.021 2.49918 11.694C2.49918 12.367 2.76688 13.0124 3.24326 13.4878L4.67163 14.917C-2.48238 23.9646 -1.29428 37.0308 7.37429 44.6397C16.0429 52.2486 29.1528 51.7327 37.1966 43.466C45.2403 35.1994 45.3978 22.0802 37.5549 13.6228L39.5116 11.6669H44.1667C44.3877 11.6669 44.5996 11.5791 44.7559 11.4228L49.756 6.42265C49.9942 6.18431 50.0655 5.82594 49.9366 5.51458C49.8076 5.20323 49.5038 5.00019 49.1668 5.00011H46.1784L49.756 1.42253C50.0718 1.09554 50.0673 0.575776 49.7458 0.254324C49.4244 -0.0671285 48.9046 -0.0716451 48.5776 0.244172ZM39.9999 6.17847L43.3333 2.84507V5.48846L39.9999 8.82187V6.17847ZM18.3328 2.50006C18.3328 2.03981 18.7059 1.6667 19.1661 1.6667H24.1662C24.6265 1.6667 24.9996 2.03981 24.9996 2.50006C24.9996 2.9603 24.6265 3.33341 24.1662 3.33341H19.1661C18.7059 3.33341 18.3328 2.9603 18.3328 2.50006ZM20.8328 5.00011H22.4995V6.68765C22.2229 6.67765 21.9453 6.66682 21.6662 6.66682C21.387 6.66682 21.1095 6.67765 20.8328 6.68765V5.00011ZM4.42245 12.3111C4.25729 12.1474 4.16487 11.9241 4.16596 11.6915C4.16706 11.459 4.26158 11.2366 4.42829 11.0744C4.58837 10.915 4.80664 10.828 5.03247 10.8336C5.26145 10.8312 5.48169 10.9214 5.64331 11.0836L6.98168 12.417C6.55667 12.8097 6.14805 13.2184 5.75582 13.6428L4.42245 12.3111ZM41.6666 28.334C41.68 37.8136 35.0457 46.0043 25.7701 47.96C16.4944 49.9158 7.11799 45.101 3.30279 36.423C-0.512403 27.7451 2.27865 17.5809 9.99054 12.0682C17.7024 6.55556 28.2229 7.20435 35.199 13.6228L34.0206 14.8012C26.6536 8.07455 15.2631 8.4626 8.37103 15.675C1.4789 22.8874 1.60828 34.2837 8.66235 41.3378C15.7164 48.3919 27.1128 48.5213 34.3252 41.6291C41.5376 34.737 41.9256 23.3465 35.199 15.9795L36.3773 14.8012C39.7811 18.4855 41.6699 23.3181 41.6666 28.334ZM24.1662 28.334C24.1662 29.7147 23.0469 30.834 21.6662 30.834C20.2854 30.834 19.1661 29.7147 19.1661 28.334C19.1661 26.9532 20.2854 25.8339 21.6662 25.8339C22.0374 25.8358 22.4034 25.9212 22.737 26.0839L21.077 27.744C20.8604 27.9532 20.7735 28.263 20.8497 28.5544C20.926 28.8458 21.1536 29.0733 21.4449 29.1496C21.7363 29.2258 22.0461 29.139 22.2554 28.9223L23.9162 27.2631C24.0793 27.5966 24.1648 27.9627 24.1662 28.334ZM23.9604 24.8614C22.1709 23.677 19.7751 24.0404 18.4173 25.7022C17.0595 27.364 17.1811 29.7842 18.6985 31.3016C20.216 32.8191 22.6361 32.9406 24.298 31.5828C25.9598 30.2251 26.3232 27.8293 25.1388 26.0398L27.5205 23.658C30.0123 26.7752 29.6349 31.296 26.6608 33.9569C23.6867 36.6178 19.1519 36.4919 16.3301 33.6701C13.5082 30.8482 13.3823 26.3134 16.0432 23.3394C18.7042 20.3653 23.2249 19.9879 26.3421 22.4797L23.9604 24.8614ZM27.528 21.2938C23.7566 18.1524 18.1813 18.533 14.8718 22.1578C11.5623 25.7826 11.6892 31.3694 15.16 34.8402C18.6307 38.3109 24.2175 38.4379 27.8424 35.1284C31.4672 31.8188 31.8478 26.2436 28.7063 22.4722L31.0622 20.1163C35.5177 25.2074 35.1332 32.9145 30.193 37.5367C25.2528 42.159 17.5371 42.0307 12.7533 37.2469C7.96943 32.463 7.84119 24.7474 12.4634 19.8072C17.0857 14.867 24.7928 14.4824 29.8839 18.9379L27.528 21.2938ZM31.0622 17.7596C25.3149 12.6496 16.5463 13.0355 11.2701 18.6305C5.99384 24.2255 6.1225 33.0017 11.5605 38.4397C16.9984 43.8777 25.7746 44.0063 31.3696 38.7301C36.9647 33.4539 37.3505 24.6852 32.2406 18.9379L34.0073 17.1712C40.0876 23.9125 39.6827 34.2728 33.0946 40.5189C26.5066 46.765 16.1394 46.6177 9.73147 40.187C3.3235 33.7563 3.21295 23.3887 9.48235 16.8228C15.7517 10.257 26.1134 9.88866 32.8331 15.9929L31.0622 17.7596ZM47.1551 6.66682L43.8217 10.0002H41.1783L44.5117 6.66682H47.1551Z" fill="url(#paint0_linear_96_15718)"/>
<defs>
<linearGradient id="paint0_linear_96_15718" x1="53.2692" y1="55.2178" x2="-29.7003" y2="43.0839" gradientUnits="userSpaceOnUse">
<stop stop-color="#0B3F37"/>
<stop offset="0.969562" stop-color="#CB8D62"/>
</linearGradient>
</defs>
</svg>
