<svg width="49" height="58" viewBox="0 0 49 58" fill="none" xmlns="http://www.w3.org/2000/svg">
<path d="M20.1191 3.62123L20.1195 3.62118L22.3418 3.30207L23.3417 1.30918C23.3418 1.30903 23.3418 1.30887 23.3419 1.30872C23.5128 0.965088 23.8652 0.749108 24.2493 0.750003M20.1191 3.62123L21.0308 9.10925C20.979 9.39356 21.0951 9.68227 21.3298 9.85327C21.5646 10.0243 21.8771 10.0477 22.1351 9.91362L22.2501 10.1356L22.2502 10.1355C22.2502 10.1355 22.2503 10.1355 22.2504 10.1355L24.2478 9.10067L26.2464 10.1356L26.2466 10.1357C26.5883 10.3123 27.0014 10.2813 27.3126 10.0555C27.6241 9.82945 27.7802 9.4469 27.7137 9.06814C27.7137 9.06797 27.7136 9.06781 27.7136 9.06764L27.3347 6.88846L28.9371 5.3492C28.9372 5.34904 28.9374 5.34888 28.9376 5.34872C29.2188 5.08107 29.321 4.67632 29.1991 4.30788C29.0807 3.94041 28.7614 3.67394 28.3787 3.62026C28.3785 3.62024 28.3784 3.62022 28.3782 3.62019L26.1522 3.3012L25.1566 1.31073C25.1565 1.31059 25.1565 1.31045 25.1564 1.31031C24.9858 0.966276 24.6336 0.749697 24.2493 0.750003M20.1191 3.62123C19.737 3.67664 19.4184 3.94293 19.299 4.30981C19.1796 4.67692 19.2812 5.07902 19.5597 5.34655C19.5597 5.34655 19.5597 5.34656 19.5597 5.34656L21.1635 6.88717L20.7848 9.06449C20.7847 9.06483 20.7847 9.06518 20.7846 9.06552L20.1191 3.62123ZM24.2493 0.750003C24.2494 0.750003 24.2496 0.750004 24.2498 0.750004L24.2491 1L24.2488 0.750003C24.2489 0.750003 24.2491 0.750003 24.2493 0.750003ZM26.2499 8.60512L25.9297 6.76393L25.9297 6.76383L26.176 6.721C26.1517 6.58127 26.1986 6.43864 26.3013 6.34003L26.2499 8.60512ZM26.2499 8.60512L24.565 7.73195L24.565 7.73194C24.3676 7.62964 24.1324 7.62963 23.9349 7.73192C23.9349 7.73192 23.9349 7.73193 23.9349 7.73194L22.2496 8.60483L22.5697 6.76414C22.5697 6.76408 22.5697 6.76402 22.5697 6.76397L22.5698 6.76384L22.3235 6.721M26.2499 8.60512L22.1986 6.34003C22.3012 6.43872 22.3479 6.58135 22.3235 6.721M25.0882 4.22328L24.247 2.53917L23.4025 4.22398C23.4024 4.22401 23.4024 4.22405 23.4024 4.22408C23.3023 4.424 23.1101 4.56143 22.8891 4.59307L22.8893 4.59305L22.8536 4.34561L22.8889 4.59309L25.0882 4.22328ZM25.0882 4.22328C25.0882 4.2233 25.0883 4.22332 25.0883 4.22335L25.0882 4.22328ZM22.3235 6.721L21.9707 8.74927L22.3235 6.721ZM27.4772 4.86297L26.1282 6.15966L25.3119 4.11163C25.375 4.23794 25.4966 4.32543 25.6373 4.34561L25.6016 4.59306L25.6017 4.59307L27.4772 4.86297ZM21.02 4.86273L20.7912 4.64315L20.4773 4.68844L20.7062 4.90801L21.02 4.86273ZM24.1074 2.25974L24.2474 1.9805L24.3869 2.25993L24.1074 2.25974Z" fill="url(#paint0_linear_96_15737)" stroke="url(#paint1_linear_96_15737)" stroke-width="0.5"/>
<path d="M20.75 28.2194V28.4694H20C19.7239 28.4694 19.5 28.2387 19.5 27.9541V24.5635C19.498 22.9561 20.4584 21.514 21.9145 20.9379M20.75 28.2194H21V25.5477C21 25.2631 21.2239 25.0324 21.5 25.0324C21.7762 25.0324 22 25.2631 22 25.5477V28.2194H22.25M20.75 28.2194H20C19.869 28.2194 19.75 28.1078 19.75 27.9541L19.75 24.5635L19.75 24.5632C19.7482 23.101 20.5948 21.79 21.8832 21.222M20.75 28.2194V25.5477C20.75 25.1322 21.0788 24.7824 21.5 24.7824C21.9213 24.7824 22.25 25.1322 22.25 25.5477V28.2194M22.25 28.2194V28.4694H26.75V28.2194M22.25 28.2194H26.75M26.75 28.2194H27V25.5477C27 25.2631 27.2238 25.0324 27.5 25.0324C27.7761 25.0324 28 25.2631 28 25.5477V28.2194H28.25M26.75 28.2194V25.5477C26.75 25.1322 27.0787 24.7824 27.5 24.7824C27.9212 24.7824 28.25 25.1322 28.25 25.5477V28.2194M28.25 28.2194V28.4694H29C29.2761 28.4694 29.5 28.2387 29.5 27.9541V24.5635C29.502 22.9561 28.5416 21.514 27.0855 20.9379M28.25 28.2194H29C29.131 28.2194 29.25 28.1078 29.25 27.9541V24.5635V24.5632C29.2518 23.101 28.4052 21.79 27.1168 21.222M27.0855 20.9379C25.5365 22.0689 23.4635 22.0689 21.9145 20.9379M27.0855 20.9379L27.2329 21.1399C27.1945 21.1679 27.1558 21.1953 27.1168 21.222M27.0855 20.9379L26.9935 21.1704C27.0351 21.1868 27.0762 21.204 27.1168 21.222M21.9145 20.9379L22.0065 21.1704C21.9649 21.1868 21.9238 21.204 21.8832 21.222M21.9145 20.9379L21.7671 21.1399C21.8055 21.1679 21.8442 21.1953 21.8832 21.222M21.8832 21.222C23.4674 22.3076 25.5326 22.3076 27.1168 21.222M28.2769 20.0992C29.8092 21.0263 30.7551 22.7244 30.75 24.5639V24.5635H30.5L30.75 24.5642L30.75 27.9541C30.75 28.9388 29.9735 29.75 29 29.75H20C19.0265 29.75 18.25 28.9388 18.25 27.9541V24.5639V24.5635H18.5L28.2769 20.0992ZM28.2769 20.0992C29.7337 18.1343 29.5386 15.3319 27.7781 13.6025C25.9426 11.7992 23.0535 11.7992 21.2179 13.6025C19.4574 15.332 19.2623 18.1345 20.7193 20.0994L28.2769 20.0992ZM24.5002 13.7915C26.288 13.7916 27.75 15.2874 27.75 17.1485C27.75 19.0097 26.2879 20.5055 24.5 20.5055C22.7122 20.5055 21.2501 19.0097 21.25 17.1486C21.2522 15.2883 22.7131 13.7936 24.5002 13.7915Z" fill="url(#paint2_linear_96_15737)" stroke="url(#paint3_linear_96_15737)" stroke-width="0.5"/>
<path d="M47.5659 20.1544C46.9647 19.9222 46.2937 19.954 45.7172 20.242C45.1628 20.5161 44.7464 21.0079 44.5673 21.5999L44.0338 23.3899C43.6716 24.7108 42.9082 25.8867 41.8495 26.7551C41.3366 27.1639 40.8865 27.6459 40.5141 28.1856C39.9631 28.9785 39.2435 29.6386 38.4064 30.1188L38.006 30.3477C37.5522 29.9943 36.9929 29.8039 36.4176 29.8069C35.5791 29.7998 34.7918 30.2104 34.3174 30.9023L31.6134 34.8109C30.416 35.1449 26.2682 36.5478 24.5 40.1344C22.7321 36.5478 18.5843 35.1449 17.3869 34.8109L14.6919 30.912C14.2175 30.2142 13.4261 29.7994 12.5824 29.8069C12.0074 29.8039 11.4481 29.9943 10.9943 30.3477L10.6014 30.1237C9.75801 29.6416 9.03238 28.9774 8.47798 28.1793C8.10638 27.6422 7.65778 27.1624 7.14674 26.7558C6.08765 25.887 5.32427 24.7105 4.96239 23.3891L4.42893 21.5999C4.2506 21.0086 3.83602 20.5172 3.28311 20.242C2.70665 19.9532 2.03486 19.9214 1.43335 20.1544C0.563802 20.4948 -0.00630267 21.3363 5.25948e-05 22.2705V25.212C0.00154795 26.2158 0.24417 27.2046 0.708104 28.0951L2.20533 30.9939C2.52758 31.6181 2.94964 32.1859 3.4547 32.6743L7.83198 36.9001C10.902 40.195 15.2254 45.4934 15.2254 46.9639C15.0703 48.0189 14.6968 49.0302 14.1286 49.9327C13.7304 50.6814 13.7562 51.585 14.197 52.3094C14.6493 53.0555 15.4613 53.5081 16.3335 53.4998H21.2334C22.174 53.5103 23.0394 52.9864 23.4663 52.1479C23.8936 51.2596 24.2394 50.3351 24.5 49.3848C24.7609 50.3351 25.1067 51.2596 25.534 52.1479C25.9609 52.9864 26.826 53.5103 27.7666 53.4998H32.6669C33.539 53.5081 34.3514 53.0559 34.8041 52.3094C35.2445 51.585 35.2707 50.6814 34.8725 49.9327C34.3043 49.0302 33.9305 48.0189 33.7749 46.9639C33.7749 45.4934 38.0984 40.195 41.1388 36.9311L45.549 32.6743C46.0526 32.1855 46.4735 31.6178 46.795 30.9939L48.287 28.1026C48.7532 27.2114 48.998 26.221 48.9999 25.215V22.2739C49.0081 21.3381 48.4373 20.4948 47.5659 20.1544ZM22.0042 51.4133C21.8539 51.6979 21.5553 51.8733 21.2334 51.8659H16.3335C16.0333 51.8741 15.7514 51.7211 15.5944 51.4646C15.4497 51.2293 15.4422 50.9342 15.5749 50.6919C16.2815 49.5635 16.7204 48.2882 16.8587 46.9639C16.8587 44.325 10.3341 37.1892 8.99649 35.7545L4.58669 31.4981C4.20836 31.1338 3.89247 30.7101 3.65134 30.2437L2.15785 27.3441C1.81429 26.687 1.63448 25.9566 1.63336 25.215V22.2739C1.627 22.0207 1.77467 21.7892 2.00682 21.6882C2.08832 21.6557 2.17542 21.6385 2.26328 21.6366C2.36459 21.6362 2.46477 21.6598 2.55562 21.7054C2.70478 21.7772 2.81768 21.9074 2.8674 22.0656L3.40012 23.8533C3.85733 25.4985 4.81435 26.9608 6.13887 28.0379C6.5228 28.3438 6.85926 28.7043 7.13777 29.1083C7.82825 30.1042 8.73182 30.9341 9.78305 31.537L10.1154 31.7273C10.0679 31.9114 10.0429 32.1006 10.0403 32.2906C10.0436 32.5644 10.0907 32.8362 10.1801 33.095C10.3767 33.6474 10.5636 34.244 10.7188 34.8151C11.0956 36.2258 11.8478 37.5074 12.8953 38.5243C12.9162 38.5449 12.9386 38.5644 12.9622 38.5823L17.2333 41.891C17.5903 42.1674 18.1032 42.102 18.3795 41.7452C18.6558 41.3884 18.5907 40.8749 18.2337 40.5985L13.9985 37.3182C13.179 36.5111 12.591 35.4987 12.296 34.3868C12.1326 33.7731 11.9285 33.1377 11.7244 32.5673C11.6926 32.4783 11.6751 32.3848 11.6721 32.2906C11.6721 32.1354 11.7195 31.9839 11.8085 31.8568C11.8149 31.8467 11.8156 31.8362 11.8223 31.8265C11.8287 31.8164 11.8459 31.7977 11.8556 31.7816C12.0481 31.5699 12.3233 31.4536 12.6089 31.4637C12.8945 31.4734 13.1614 31.608 13.3386 31.8321L16.2142 35.9905C16.3323 36.1611 16.5107 36.2804 16.7133 36.3249C17 36.387 23.6835 37.9091 23.6835 43.6959C23.6873 46.3592 23.1153 48.9917 22.0068 51.4133H22.0042ZM47.3666 25.215C47.3655 25.9581 47.1849 26.69 46.8399 27.3482L45.3464 30.2437C45.1049 30.7101 44.7886 31.1338 44.4103 31.4981L39.9736 35.7856C38.6666 37.1892 32.1416 44.325 32.1416 46.9639C32.2796 48.2882 32.7188 49.5635 33.4254 50.6919C33.5581 50.9342 33.5506 51.2293 33.406 51.4646C33.2489 51.7211 32.9671 51.8741 32.6669 51.8659H27.7666C27.444 51.8741 27.1445 51.6987 26.9935 51.4133C25.8851 48.9917 25.3131 46.3592 25.3168 43.6959C25.3168 37.9091 32.0003 36.387 32.2856 36.3249C32.4878 36.2804 32.6661 36.1611 32.7843 35.9905L35.6662 31.8238C35.837 31.5912 36.1058 31.4502 36.3944 31.442C36.683 31.4338 36.9593 31.5594 37.1429 31.7823C37.1526 31.7984 37.1664 31.8115 37.1765 31.8272C37.1862 31.8425 37.1836 31.8474 37.1903 31.8575C37.2789 31.9847 37.3264 32.1361 37.3268 32.2913C37.3242 32.3788 37.3088 32.4656 37.2808 32.5486C37.0718 33.1384 36.8726 33.7742 36.7036 34.3909C36.4083 35.5017 35.8206 36.513 35.0015 37.3189L30.7663 40.5993C30.41 40.876 30.345 41.3899 30.622 41.7463C30.8986 42.1031 31.4119 42.1678 31.7685 41.891L36.0397 38.5823C36.0632 38.5644 36.0856 38.5449 36.1066 38.5243C37.1533 37.5086 37.9055 36.2276 38.2823 34.818C38.4382 34.2462 38.6251 33.6474 38.8277 33.0763C38.9137 32.8232 38.959 32.558 38.9616 32.2906C38.959 32.1006 38.9339 31.9114 38.8864 31.7273L39.2263 31.5321C40.2726 30.9315 41.1721 30.1053 41.86 29.1139C42.14 28.7077 42.4779 28.3449 42.8637 28.0371C44.1875 26.9608 45.1441 25.4992 45.601 23.8548L46.1344 22.0656C46.1842 21.9074 46.2971 21.7772 46.4462 21.7054C46.6178 21.6213 46.8171 21.6138 46.9943 21.6848C47.2268 21.7858 47.3745 22.0173 47.3685 22.2705L47.3666 25.215Z" fill="url(#paint4_linear_96_15737)"/>
<path d="M35.2291 12.7455L33.729 14.4954C33.534 14.7153 33.4561 15.0406 33.5248 15.3466C33.5931 15.6526 33.7981 15.8913 34.0604 15.9715C34.3227 16.0516 34.6015 15.9602 34.7896 15.7327L36.2897 13.9828C36.5739 13.6395 36.5698 13.0939 36.2807 12.7563C35.9913 12.4186 35.5237 12.4142 35.2291 12.7455Z" fill="url(#paint5_linear_96_15737)"/>
<path d="M35.0002 17.7502C35.0002 18.1642 35.392 18.5 35.8754 18.5H37.6254C38.1085 18.5 38.5002 18.1642 38.5002 17.7502C38.5002 17.3358 38.1085 17 37.6254 17H35.8754C35.392 17 35.0002 17.3358 35.0002 17.7502Z" fill="url(#paint6_linear_96_15737)"/>
<path d="M14.7478 16C15.0519 16 15.3263 15.7862 15.4428 15.4584C15.5592 15.1305 15.4948 14.7528 15.2795 14.5017L13.7749 12.7462C13.4797 12.4139 13.0107 12.4184 12.7204 12.7571C12.43 13.0958 12.4262 13.643 12.7111 13.9874L14.2157 15.7428C14.3569 15.9076 14.5484 16 14.7478 16Z" fill="url(#paint7_linear_96_15737)"/>
<path d="M10.4998 17.7502C10.4998 18.1642 10.8915 18.5 11.375 18.5H13.125C13.608 18.5 13.9998 18.1642 13.9998 17.7502C13.9998 17.3358 13.608 17 13.125 17H11.375C10.8915 17 10.4998 17.3358 10.4998 17.7502Z" fill="url(#paint8_linear_96_15737)"/>
<defs>
<linearGradient id="paint0_linear_96_15737" x1="29.6209" y1="10.9346" x2="13.8946" y2="8.50584" gradientUnits="userSpaceOnUse">
<stop stop-color="#0B3F37"/>
<stop offset="0.969562" stop-color="#CB8D62"/>
</linearGradient>
<linearGradient id="paint1_linear_96_15737" x1="20.4893" y1="2.85294" x2="26.6169" y2="2.55736" gradientUnits="userSpaceOnUse">
<stop stop-color="#847153"/>
<stop offset="1" stop-color="#395242"/>
</linearGradient>
<linearGradient id="paint2_linear_96_15737" x1="31.2846" y1="31.2654" x2="11.1607" y2="29.187" gradientUnits="userSpaceOnUse">
<stop stop-color="#0B3F37"/>
<stop offset="0.969562" stop-color="#CB8D62"/>
</linearGradient>
<linearGradient id="paint3_linear_96_15737" x1="19.75" y1="16" x2="27.5" y2="15.75" gradientUnits="userSpaceOnUse">
<stop stop-color="#847153"/>
<stop offset="1" stop-color="#395242"/>
</linearGradient>
<linearGradient id="paint4_linear_96_15737" x1="52.2038" y1="56.9788" x2="-27.2082" y2="39.9839" gradientUnits="userSpaceOnUse">
<stop stop-color="#0B3F37"/>
<stop offset="0.969562" stop-color="#CB8D62"/>
</linearGradient>
<linearGradient id="paint5_linear_96_15737" x1="36.6964" y1="16.3635" x2="31.6905" y2="15.7357" gradientUnits="userSpaceOnUse">
<stop stop-color="#0B3F37"/>
<stop offset="0.969562" stop-color="#CB8D62"/>
</linearGradient>
<linearGradient id="paint6_linear_96_15737" x1="38.7291" y1="18.6558" x2="33.4162" y2="16.842" gradientUnits="userSpaceOnUse">
<stop stop-color="#0B3F37"/>
<stop offset="0.969562" stop-color="#CB8D62"/>
</linearGradient>
<linearGradient id="paint7_linear_96_15737" x1="15.6962" y1="16.3635" x2="10.6902" y2="15.7357" gradientUnits="userSpaceOnUse">
<stop stop-color="#0B3F37"/>
<stop offset="0.969562" stop-color="#CB8D62"/>
</linearGradient>
<linearGradient id="paint8_linear_96_15737" x1="14.2286" y1="18.6558" x2="8.91574" y2="16.842" gradientUnits="userSpaceOnUse">
<stop stop-color="#0B3F37"/>
<stop offset="0.969562" stop-color="#CB8D62"/>
</linearGradient>
</defs>
</svg>
